<svg xmlns="http://www.w3.org/2000/svg" xmlns:xlink="http://www.w3.org/1999/xlink" viewBox="0 0 104.167 104.167" fill="#fff" fill-rule="evenodd" stroke="#000" stroke-linecap="round" stroke-linejoin="round"><use xlink:href="#A" x="2.083" y="2.083"/><symbol id="A" overflow="visible"><use xlink:href="#C" fill="#d0cfce" stroke="none" fill-rule="nonzero"/><g fill="none" stroke-width="4.167"><use xlink:href="#C" stroke-linejoin="miter"/><path d="M74.887 41.723V58.39h7.142"/><use xlink:href="#D"/><use xlink:href="#D" x="19.021"/><path d="M29.954 56.892c-1.05.931-2.433 1.5-3.948 1.5a5.96 5.96 0 0 1-5.952-5.952v-4.762 4.762-4.762a5.96 5.96 0 0 1 5.952-5.952c1.515 0 2.896.567 3.948 1.5"/></g></symbol><defs ><path id="C" d="M97.99 100H2.01A2.02 2.02 0 0 1 0 97.99V2.01A2.02 2.02 0 0 1 2.01 0H97.99A2.02 2.02 0 0 1 100 2.01V97.99a2.02 2.02 0 0 1-2.01 2.01z"/><path id="D" d="M41.573 58.39a5.96 5.96 0 0 1-5.952-5.952v-4.763a5.96 5.96 0 0 1 5.952-5.952 5.96 5.96 0 0 1 5.952 5.952v4.763a5.96 5.96 0 0 1-5.952 5.952z"/></defs></svg>